<svg xmlns="http://www.w3.org/2000/svg" xmlns:xlink="http://www.w3.org/1999/xlink" viewBox="0 0 255.41 251.62"><defs><clipPath id="a"><circle cx="127.4" cy="125.81" r="119.37" style="fill:none;stroke:#231f20;stroke-miterlimit:10;stroke-width:2px"/></clipPath></defs><g style="clip-path:url(#a)"><path d="M75.52,125.73l21.6,9.09V80.51c-1.94-53,.74-64.66,3.67-65.06,5-.66,9,30.16,32.59,73.4,8.17,15,17.16,31.2,33.85,48.63,15.63,16.33,32.11,27.56,42.82,34.86,12.17,8.29,23.24,14.6,29.56,18.19,11.46,6.5,21.54,11.62,29.44,15.42" style="fill:none;stroke:#1c75bc;stroke-miterlimit:10;stroke-width:5px"/><path d="M56.58,152.63l21.59,9.1V107.42c-1.94-53,.74-64.67,3.67-65.06,5-.67,9,30.15,32.59,73.39,8.18,15,17.17,31.2,33.85,48.63,15.63,16.33,32.11,27.57,42.82,34.86,12.17,8.3,23.24,14.61,29.56,18.19,11.47,6.51,21.55,11.62,29.44,15.42" style="fill:none;stroke:#00a651;stroke-miterlimit:10;stroke-width:5px"/><path d="M37.63,172l21.6,9.09v-54.3c-1.95-53,.73-64.67,3.66-65.06,5-.67,9,30.15,32.59,73.39,8.18,15,17.17,31.2,33.85,48.63C145,200,161.45,211.27,172.15,218.57c12.17,8.29,23.24,14.6,29.56,18.19,11.47,6.51,21.55,11.62,29.44,15.42" style="fill:none;stroke:#c3504f;stroke-miterlimit:10;stroke-width:5px"/><g style="opacity:0.1"><path d="M92.66,224.77l-.42-.06A2.18,2.18,0,0,0,92.66,224.77Z" style="fill:#231f20"/><path d="M95.37,226l.14-.15C95.35,225.86,95.26,225.91,95.37,226Z" style="fill:#231f20"/><path d="M147.5,243.05c-.4-.58-.79-1.37-.9-.93v.47A2,2,0,0,1,147.5,243.05Z" style="fill:#231f20"/><path d="M118.55,233.42l.11.19.53-.22Z" style="fill:#231f20"/><path d="M117.45,234.9l-.61-.56A3.51,3.51,0,0,0,117.45,234.9Z" style="fill:#231f20"/><path d="M77.64,218.81,77,219C77.71,219.32,77.5,219,77.64,218.81Z" style="fill:#231f20"/><path d="M95.55,221c-.26,0-.39,0-.42.1C95.39,221.14,95.56,221.12,95.55,221Z" style="fill:#231f20"/><path d="M24,195.33s-.08-.06-.1-.1S23.87,195.31,24,195.33Z" style="fill:#231f20"/><path d="M10,184.57a5.26,5.26,0,0,1,.66.25A1.89,1.89,0,0,0,10,184.57Z" style="fill:#231f20"/><path d="M53.25,206.67l-.06-.07C52.76,206.61,52.93,206.65,53.25,206.67Z" style="fill:#231f20"/><path d="M136.55,243.25h0l0,0Z" style="fill:#231f20"/><path d="M135.16,243a1.22,1.22,0,0,1,1.4.21l.07-1.33Z" style="fill:#231f20"/><path d="M86.11,222.09l.73.74c-1.32.12-2-.41-1.4.45.67-1.19,3.51,1.36,4.17.16l.47.52c-.16-.09-.22,0-.38-.11.88,1.09,1.24-.54,2.63.27.47.32.75.65.33.65l1.28.18c.32.17.14.35-.18.18l1.78.65,0,0a8,8,0,0,1,1.36-.16c.36.37-.28,0-.23.24l1.09.11c.25.49-.68.47-1.33.13.37,1.64.94,0,2.56,1.59l-1-.23c.28,1,1.1,1,1.93,1.89-.14-.33-1.57-2-.4-1.86a1.77,1.77,0,0,0,1.3.43c-.19.44.41.57,1.11.84l-.3.57c.82.15.89-.17,1.44-.25a1.37,1.37,0,0,1,.81,1.41c1.29.66-.61-1.12,1-.56a7,7,0,0,0,3.36,1c.69.54-.29.3-.08.59l.89-.17c.16.08,0,.2,0,.26.66.07.3-.57,1.28-.34.52-.54,1.46,1.75,2.9,1.5.2.29-.29.3-.3.57a11.12,11.12,0,0,0,3,.11l.91.85c-.6-.78.64-.87,1.71-.92-.19-.33-.35-.62-.47-.78l1.55.29c.13.17-.1.31-.44.46l.32,0c.41.43,0,.66-.5.83-.12-.19-.24-.38-.35-.58-.51.21-1,.46-1.08.84a1.27,1.27,0,0,1,.53,0c-.13.06-.22.12-.21.19s.23,0,.52,0l0,.79.19-.22,1.68,1.2c1.61-.09,3.18-.56,5.4.07-.73.26-.45.74-.73,1.29-.31-.84-1.74-.44-2.77-1,.54.31.3.52.11.56l2.18.28c-.24.45.26.53.69.94,0-1.08,1.71,0,2.62.07-.08.33-.41.56-1.34.07.77,1.15,1.84-.48,2.63.55-.24-.09-.34-.19-.5-.08.66,0,1.92.76,1.48.89l-.23-.09c1.51.78,4.75,2.05,5.32,1.37a5,5,0,0,1-.77,1l3.92-1.43c-.53.57-.28,2.57-1.74,2.39a2.87,2.87,0,0,0,1.63.67c-.21-.2-.21-1.24.16-1.15.63,1.15.49.68,1.39,1.82-.32-.31.56-1.18,1.14-.88-.16.11-.39,1.06-.66,1.07l1.94-.39c-.45,0-.44.85-.23,1.29-.07-.27,1.29.57,1.73.64l-.53-.51c1.62.88,2.29-.74,4,0-.3.12-1.07,1.1-.27,1.59.62-.36,2.82-1.8,4.48-1.57l.16.43,1.28.14a25.35,25.35,0,0,1-5.12,1.5c.52.51,0,.43,1,.81.21.43-.7.21-1,.11l2.13,1.13c.16-.66,1.95.1,2.09-.45l-2.67-.39c.16-.66,2.14-1.15,3.65-.37.29.41-.77,1-.82,1.19a2.85,2.85,0,0,1,1.73.44l-.8,0c.77.6,1.77-.21,2.56.83.35.19.74,1.26,1,.92a4.6,4.6,0,0,1,1.15-3.55,14.11,14.11,0,0,1,1.87,2c.36.81-1.46.94-1.15,1.63.09-.16.51-.23.67-.23.32.3-.38.45.48.73.4-.57,1.65.77.61-.36.89.16.81.49,1.76.87-.12-.53,1.44-1,2.33-.84-.12.14,0,.42,0,.56,1.63.76,2.39,1.43,3.93,2.1.08.21.74.71.31.84a1.93,1.93,0,0,1,1.05,0c.68.94-1.1-.37-.68.58.22-.33,1.45,0,2.22.09,0-.65-1.52-.78-2.29-.84.33-.78,1.86-1.08,3.62-.75,1.36.36.34.74.61.73,2.34,1.16,2.63-.48,4.38.94.58.83-.38,1-.36,1.43-1.12-.26-1.47-1-2.18-1.29l.77.61a2.4,2.4,0,0,1-1.47-.46c.47.73,4,1.83,5.7,3,.4,0,1,.05.86-.26l-.62-.19c-.37-.63,1.34-.07.68-.58a5.33,5.33,0,0,1,3,.7l0,.65c0-.17-.58-.64-1-.61.57-.05,1.37,1.5,2.19,1l-.6-.73c.91.06,2.14-.12,3.05.48-.21-.75-.26,0-.68-1,.26,1.07-2.49-1.12-1.89.15-.39-1.06-1.1-.85-1.76-1.9,0,.2.18.5-.6.05a1.06,1.06,0,0,1-.25.09l-.05,0,0,0s0,0,0,0a1,1,0,0,1,.29.46c-.59.25-1.89-.33-2.43-.3-.45-.29.3-.12.11-.43l-.8,0c.11-.44-1-1.24.25-1l-1-.46a3.6,3.6,0,0,0-1.9-1c-.45-.3-1.43-.07-.87-.21l-1.73-.45,0-.11c-1.59-.74-3.6-.73-5.11-2.27a5.94,5.94,0,0,1-2.06-.74l0-.44c-.75-.17-1.93-1.25-2.39-1-.33-1.29-3.27-1.66-4.42-2.36l-.24.45a13.66,13.66,0,0,0-2.82-.86l-.11.44c-1,0-2.18-1.29-3.62-1.86.16-.11.5.08.72.29-1.3-1.66-3.88-.87-5.12-2.21a1.25,1.25,0,0,1-.93-.4l.1,0-.15-.07c-.14-.15-.28-.3-.44-.45a1.86,1.86,0,0,0,.35.41,6.47,6.47,0,0,0-1.25-.34v-.53l-.11,0c-.36-.35-.43.06-.35.49a2.59,2.59,0,0,0-.69,0c0-.87-1.26-.26-1.41-1.22-.46.24-2.33-.67-2.91,0,0-.11-.08-.22.16-.12a2.41,2.41,0,0,0-1.43-.57l0-.65-1.4.29c-.5-.62-.68-.93.15-1.09-1.85,0-1.37-.29-3-.2l.23-.34c-.48-.19-1.45,0-1.61-.45-.76-1.15-5.21-2.35-7.65-4.17.06,1.3-1.06-1-1.53-.24,0-.32-.36-.62.17-.65-1.5-.35-1.91-1.3-3.17-1,0-.32.45-.24.38-.45-.14,0-.54,0-.62-.18s.29-.13.56-.15a1.61,1.61,0,0,0-2.33.84,1.29,1.29,0,0,0-1.68-.5c-.15-.35-.46-.78.46-.48-.48-.25-2.88-1.66-3.18-1.09-.09-.22-.68-.35-.84-.33a20.32,20.32,0,0,0-2.29-1l.27.23c-.74.52-1-.23-1.9-.53l.06-.06c-1.8-1.38-1-.13-2.72-1.57l-.08.49c-.6.87-1.53-1.32-2.84-1.46l.31.43c-.78.06-1.22-2-1.8-2.43-.1-.15.27,0,.49,0-1.42-1.27-.46.48-1.76.09-.09-.41.64-.67-.17-1.09-.31-.43-2.85,0-3.73-1.11.15.35.29.69-.36.63-.92-.3-2-1.94-3.12-1.52-.08-.11-.1-.2-.07-.26-.76-.09-2.33-.61-2.92-.38,0-1.79-4.5-1.06-3.88-2.46l-2.11-.81.12-.12a3.06,3.06,0,0,0-2.51-.39c-.27-.23,0-.27.07-.33a5.36,5.36,0,0,0-4-1.14l0-.52c-.55.07-2.49-1.92-4.62-2.21a.39.39,0,0,1,.3-.11c-2.37-.39-4.57-3.46-6.07-2.14l-1.59-.2c1.77.91-.58.6.05,1.2-.75-.21-1.63-1.3-.72-1l.11.14c.69-.73-2.14-1.28-1.84-1.85-3.6-1.5-6.9-3.48-10.24-5l.1.84-1.16-.55c-.24-.29-.19-.7.64-.31-.28-.57-1.54-.29-1.63-.15-1.52-1,1-.51.48-.74l-.7-.25.12.15c-.67,0-.85.31-1.84-.16-.58-.41-.15-.55-.39-.69,0-.05,0-.1-.37-.18l-1.45-.7.36.79c-.77,0-1.38-.63-1,.27-.6-1.36-5.36-2.7-5.85-3.26a7,7,0,0,1-3.09-.93c.23.23.14.9-.8.41.89-1.08-1.54-1.29-1.94-2.52.45.89-2.81-1-2.07.27-.77-.44.15-.48-.34-1-2.13-.35-4.1-2.13-6.55-3-.1.14.19.56-.42.58l-.91-1.34c-.5-.13-.83.74-1.45-.19.06.19.16.47-.18.39-4.31-2.79-9.78-3.44-13.87-6.95.51.59.07.43-.43.24.29.21-.18.39-.21.64L8.73,184c-.63.45-2.14-.87-2.6-.38l.67.16c-1.13.33.51,2,0,2.86,1.27-.38,2,2.21,4,1.75.27.33-.41.16-.31.44.55-.21,1-.08,1.84.46l-.13.05c2.47,1,3.36,1.78,6,3.2V192a2.7,2.7,0,0,1,.86.73c.95-.37-1.64-.75-.71-1.21.4,1.22,4.14,1.8,4.24,3,.9.39-.05-.62.85-.22l.12.37.38-.25c.57.31.73.78.65,1a2.78,2.78,0,0,0-.6-.16c.63.66,2.22.83,2.44,1l-.8-.55c2.58.81,5.44,2.47,8.07,2.94l-.09-.28c2,.4,1.36.85,3.44,1.53l-.1,0a3.38,3.38,0,0,1,1.61.36c-.61,0,.75.87,0,.85,2.15.45,1.12.1,2.75-.1l.16.47a2.29,2.29,0,0,1,1.72.08c-.95-.06.41.79-.67.79,1.78,1.64,3.44.58,3.93,2.09,1.37-.53-1.59-1.31-1-1.28-.32-.5,1.1-.36,1.71,0s.62,1.69,2.32,2.4c-.17-.08-.21,0-.37-.09.52.52,1.37.21,2,.93.68-.38,1,.47,1.43-.21l-1.62-.49c1,.18,2.14-.31,3.41.72a2.66,2.66,0,0,1-1,.09c.33.39.87.21,1.22.61-.44.68-1.95-.65-3.13-.49.32.5,2,.23,1.2.82,1.1-.71,1.6.84,3.07.56l-.26.41a2.51,2.51,0,0,1,1,.12l-.84.3c1.13-.08,1.6,1.19,2.6,1.31-1.87-.79-.19-.71-.84-1.36,2.54.4.82,1.71,3.48,2.6-.38-.09-1.19-.82-.56-.79a4.26,4.26,0,0,1,1.22,1.1c1.74.64-.07-.56.77-.52.35.78.93.14,1.74.29l-.18.45c1.81,1.12.91-.7,2.5.39l-1,.3,1,.23-.4.42a3.74,3.74,0,0,1,2.32.84c-.09-.41.47-.75,1.33-.39.48.51-.5.28.74.73-.4.16-.85.38-1.2-.25-.12.12-.39.16-.51.28a5,5,0,0,0,2,.93,1.36,1.36,0,0,1-.43-.31l2,.15c.21.28-.07.32-.34.36A9.85,9.85,0,0,1,73,216c-.29.31-.42.69-1.23.54l1.85.32c0,.21.67.81.4.84.84.62,2.58.29,3.69,1.1a.85.85,0,0,1,.54,0c1.12.58,2,1.47,3.55,1.56l.5,1c1.14.31-.71-1.27,1.19-.75,1.36.34.24.76.6,1.13a3.57,3.57,0,0,1,3.1.78A5.71,5.71,0,0,1,86.11,222.09Zm13.39,5.42c-.29,0-.93,0-1-.3C99,226.83,99.13,227.17,99.5,227.51Zm20.64,7.6c-.26.07-.52-.13-.78-.44A1.73,1.73,0,0,1,120.14,235.11Zm57.53,21.08h0C177.13,255.78,177.31,255.94,177.67,256.19Zm1.11.71c.15,0,.16-.08.14-.16-.13.08-.4,0-.69-.19C178.26,256.7,178.38,256.84,178.78,256.9Zm-128-54.83.18.21C50.38,202.19,50.57,202.13,50.77,202.07Z" style="fill:#231f20"/><path d="M117.59,234.74a.48.48,0,0,1,0-.29C117.45,234.48,117.41,234.56,117.59,234.74Z" style="fill:#231f20"/><path d="M77.75,218.77a.05.05,0,0,0,0,0s0,0-.07.06Z" style="fill:#231f20"/><polygon points="157.94 250.54 158.18 250.63 158.55 249.68 157.94 250.54" style="fill:#231f20"/><path d="M144.6,247.45c1,.7.51-.46,1.39.25.35-.11-.72-.58-.37-.66C144.85,247,144.56,246.71,144.6,247.45Z" style="fill:#231f20"/><path d="M145.62,247h.4A1.36,1.36,0,0,0,145.62,247Z" style="fill:#231f20"/><polygon points="7.61 182.95 6.98 182.45 7.31 182.96 7.61 182.95" style="fill:#231f20"/><path d="M6,183.06l.09-.67-.66.35C5.55,182.79,5.88,182.87,6,183.06Z" style="fill:#231f20"/><path d="M101,229.56l.11-.13c0-.2-.2-.28-.52-.45Z" style="fill:#231f20"/><polygon points="91.52 224.97 91.68 225.05 91.6 224.38 91.52 224.97" style="fill:#231f20"/><path d="M83.14,222.18c.32.16.76.21,1.08.37C83.46,222.34,83.34,221.47,83.14,222.18Z" style="fill:#231f20"/></g><g style="opacity:0.1"><path d="M251.53,249.51c.3.17.35-.26.43-.31C251.4,249.06,251.5,249.62,251.53,249.51Z" style="fill:#231f20"/><polygon points="245.93 248.14 246.09 248.02 245.16 248.08 245.93 248.14" style="fill:#231f20"/><path d="M241.05,246c.18.86,1.82.66,2.59,1.26l.08.22.61-.36A14.89,14.89,0,0,1,241.05,246Z" style="fill:#231f20"/><path d="M239.06,243.49c.05.33-.66,0,.57.35a.49.49,0,0,1-.08-.12A3.55,3.55,0,0,1,239.06,243.49Z" style="fill:#231f20"/><path d="M239.55,243.72c.52.21-.25-.36,0,0Z" style="fill:#231f20"/><path d="M237.11,242.85l.77.06c-.07-.21-.66-.5-.39-.52C236.74,242.22,236.82,242.43,237.11,242.85Z" style="fill:#231f20"/><path d="M236.26,243.05l.39,0C236.62,243,236.54,243,236.26,243.05Z" style="fill:#231f20"/><path d="M237.49,243.22l-.84-.12c.06.15,0,.37.38.08C236.88,243.35,237.11,243.22,237.49,243.22Z" style="fill:#231f20"/><path d="M237.86,243.5c.32.31.78.61,0,.54C239.19,244.51,239.2,244,237.86,243.5Z" style="fill:#231f20"/><path d="M240.51,246.6l.43.41.53,0C241.2,247,240.57,246.38,240.51,246.6Z" style="fill:#231f20"/><path d="M233,240.69c-.1.13.07.47.05.67l.57.06C233.43,241.21,233,240.92,233,240.69Z" style="fill:#231f20"/><path d="M233.08,241.36l-.86-.08C232.88,241.6,233.05,241.54,233.08,241.36Z" style="fill:#231f20"/><polygon points="235.83 243.73 237.27 243.75 235.59 243.63 235.83 243.73" style="fill:#231f20"/><polygon points="230.18 239.45 230.75 239.31 229.78 239.47 230.18 239.45" style="fill:#231f20"/><path d="M228.26,238.69c.43-.13-.23-.64.17-.66a4,4,0,0,0-1.56-.1A2.46,2.46,0,0,1,228.26,238.69Z" style="fill:#231f20"/><path d="M226.07,238a5.51,5.51,0,0,0,.8,0A2.41,2.41,0,0,0,226.07,238Z" style="fill:#231f20"/><path d="M231,240.66a.9.9,0,0,0-.42-.65l.13.52Z" style="fill:#231f20"/><path d="M230.69,240.55v0l-.63-.29Z" style="fill:#231f20"/><path d="M231.05,240.7l-.07,0C231,240.71,231,240.74,231.05,240.7Z" style="fill:#231f20"/><path d="M234,242.53c-.54,0-1.56-.13-.81.59C233.64,243,233.21,242.57,234,242.53Z" style="fill:#231f20"/><path d="M231.21,241.35l.75.43c0-.11-.05-.33.22-.34Z" style="fill:#231f20"/><polygon points="230.76 241.3 231.21 241.35 230.93 241.19 230.76 241.3" style="fill:#231f20"/><path d="M227.28,238.9a3.18,3.18,0,0,1-1.24-.28,10,10,0,0,0,1.32.71C227.48,239.23,227.77,239.09,227.28,238.9Z" style="fill:#231f20"/><path d="M228.92,239.74l-.08,0C228.87,239.78,228.9,239.81,228.92,239.74Z" style="fill:#231f20"/><path d="M221.87,236.82l0,.1,0-.06Z" style="fill:#231f20"/><path d="M227.41,239.43a.93.93,0,0,0,.8.18,7,7,0,0,1-.85-.28C227.31,239.37,227.29,239.41,227.41,239.43Z" style="fill:#231f20"/><path d="M224.83,237.63a4.58,4.58,0,0,0,.5.47C225.21,237.9,224.94,237.55,224.83,237.63Z" style="fill:#231f20"/><path d="M228.77,239.57h.06C228.75,239.44,228.75,239.49,228.77,239.57Z" style="fill:#231f20"/><path d="M228.77,239.57a2.06,2.06,0,0,0-.56,0,3,3,0,0,0,.63.11A.41.41,0,0,1,228.77,239.57Z" style="fill:#231f20"/><path d="M219.52,238.8c.21-.34,1.26-.29,1.86.43.89.06.9-1.35.52-2.31-.09.15-.15.3-1,.17.19.32,1.54,1.22.74,1.26-1.12-.26-.8-.49-1.22-.9.23.63-1.61.09-1.67.85l1,.16C219.7,238.57,219.3,238.59,219.52,238.8Z" style="fill:#231f20"/><path d="M223.38,237.6l.35.1a3.5,3.5,0,0,1-.91-1c-.61-.05-.78,0-.87.14l1.57.74Z" style="fill:#231f20"/><path d="M225.18,238.32c-.42.29-1.27.12-1,.75,1,.38.81,0,1.45,0-1.58-.56.53,0-.48-.73a5.67,5.67,0,0,1,.87.25c-.25-.17-.49-.34-.71-.52a.05.05,0,0,1,0,0h0c0,.07,0,.11,0,0h0a.5.5,0,0,1-.13.12c-.41-.28,0-.14.13-.12l.05,0h0l-1.62-.44A8,8,0,0,0,225.18,238.32Z" style="fill:#231f20"/><path d="M232,243.61c0-.05,0-.08,0-.11S231.84,243.52,232,243.61Z" style="fill:#231f20"/><path d="M231.5,243.1a.78.78,0,0,1,.64.08c.26.25-.09.18-.13.32.27,0,.89.05.29-.44h-.13c-.56-.41-1.14-1.24-1-1.25A2.67,2.67,0,0,0,231.5,243.1Z" style="fill:#231f20"/><path d="M228.25,240.79l-1.36-.35.5.62.06-.22C228.14,241.23,228.09,240.91,228.25,240.79Z" style="fill:#231f20"/><polygon points="221.8 236.56 222.15 236.22 221.16 236.49 221.8 236.56" style="fill:#231f20"/><polygon points="220.12 235.9 220.34 235.56 219.81 235.59 220.12 235.9" style="fill:#231f20"/><path d="M124.49,200.13l-.41-.06A2.2,2.2,0,0,0,124.49,200.13Z" style="fill:#231f20"/><path d="M127.2,201.32l.15-.15C127.18,201.21,127.09,201.26,127.2,201.32Z" style="fill:#231f20"/><path d="M179.33,218.41c-.4-.58-.79-1.37-.9-.93V218A1.82,1.82,0,0,1,179.33,218.41Z" style="fill:#231f20"/><path d="M150.38,208.78l.11.19.53-.22Z" style="fill:#231f20"/><path d="M149.29,210.26l-.61-.56A2.89,2.89,0,0,0,149.29,210.26Z" style="fill:#231f20"/><path d="M109.47,194.17l-.61.22C109.54,194.68,109.33,194.34,109.47,194.17Z" style="fill:#231f20"/><path d="M203.06,228.73A5,5,0,0,0,202,228C202.45,228.46,202.76,229,203.06,228.73Z" style="fill:#231f20"/><path d="M127.38,196.36c-.26,0-.39,0-.42.1C127.22,196.49,127.39,196.48,127.38,196.36Z" style="fill:#231f20"/><path d="M200.62,227.4a2,2,0,0,0,.21.2A4.47,4.47,0,0,1,202,228,1.6,1.6,0,0,0,200.62,227.4Z" style="fill:#231f20"/><path d="M55.78,170.69l-.1-.1S55.7,170.67,55.78,170.69Z" style="fill:#231f20"/><path d="M41.83,159.93c.16,0,.41.15.65.24A2.21,2.21,0,0,0,41.83,159.93Z" style="fill:#231f20"/><path d="M213.52,232.85c.36.13.07,0,0,0Z" style="fill:#231f20"/><path d="M214.55,235.16a.3.3,0,0,0-.22.14A.32.32,0,0,1,214.55,235.16Z" style="fill:#231f20"/><path d="M196,228.37h0C196.09,228.48,196.07,228.46,196,228.37Z" style="fill:#231f20"/><path d="M214,233.26a2.64,2.64,0,0,0-.4-.31A3,3,0,0,0,214,233.26Z" style="fill:#231f20"/><path d="M214,233l.29.17C214.34,233.16,214.32,233.11,214,233Z" style="fill:#231f20"/><path d="M213,232.66a3.19,3.19,0,0,1,.55.29c-.06-.06-.08-.09,0-.1Z" style="fill:#231f20"/><path d="M85.08,182,85,182C84.6,182,84.76,182,85.08,182Z" style="fill:#231f20"/><path d="M168.39,218.61h0l0,0Z" style="fill:#231f20"/><path d="M167,218.36a1.2,1.2,0,0,1,1.4.21l.07-1.33Z" style="fill:#231f20"/><path d="M117.94,197.44l.73.74c-1.32.13-2-.4-1.39.46.66-1.2,3.5,1.35,4.16.16l.48.51c-.17-.08-.23,0-.39-.1.89,1.09,1.24-.54,2.63.27.47.31.75.65.33.65l1.28.18c.32.16.14.35-.18.18l1.78.65,0,0a7.77,7.77,0,0,1,1.35-.16c.36.37-.28,0-.23.24l1.09.11c.25.49-.68.46-1.32.13.36,1.63.93,0,2.55,1.59l-1-.23c.28,1,1.1,1,1.94,1.89-.15-.33-1.58-2-.4-1.86a1.77,1.77,0,0,0,1.29.43c-.19.44.41.57,1.11.84l-.3.57c.82.15.89-.18,1.44-.25a1.37,1.37,0,0,1,.81,1.41c1.29.66-.6-1.13,1-.56a6.94,6.94,0,0,0,3.36,1c.68.53-.29.3-.09.59l.89-.18c.16.09,0,.21,0,.27.65.07.3-.57,1.27-.34.53-.54,1.46,1.75,2.9,1.5.2.28-.29.3-.3.56a11.16,11.16,0,0,0,3,.12l.92.85c-.61-.79.63-.87,1.7-.92-.19-.33-.35-.62-.47-.78l1.55.29c.13.17-.1.31-.44.46l.32,0c.42.43,0,.66-.5.83l-.35-.58c-.5.21-1,.46-1.08.84a1.32,1.32,0,0,1,.54,0c-.14.06-.23.12-.21.19s.22,0,.52,0l0,.79.19-.22,1.67,1.2c1.61-.09,3.18-.56,5.4.07-.73.26-.45.74-.73,1.29-.31-.85-1.73-.44-2.77-1,.54.31.3.52.11.56l2.18.28c-.24.45.26.53.69.94,0-1.08,1.71,0,2.62.07-.08.33-.41.56-1.34.07.77,1.15,1.84-.49,2.63.55-.24-.09-.34-.19-.5-.08.67,0,1.92.76,1.49.89l-.24-.09c1.51.78,4.75,2,5.32,1.37a5,5,0,0,1-.77,1l3.92-1.43c-.53.57-.28,2.57-1.74,2.39a2.9,2.9,0,0,0,1.63.67c-.21-.21-.21-1.24.16-1.15.63,1.15.49.68,1.39,1.82-.32-.31.56-1.18,1.15-.88-.17.11-.4,1.06-.67,1.07l1.94-.39c-.45,0-.44.85-.23,1.28-.07-.26,1.29.58,1.73.65l-.53-.51c1.62.88,2.29-.74,3.95,0-.3.12-1.07,1.1-.27,1.59.62-.36,2.82-1.8,4.48-1.57l.16.43,1.29.14a25.64,25.64,0,0,1-5.13,1.5c.53.51,0,.43,1,.81.21.43-.7.21-1,.1l2.13,1.14c.17-.66,2,.1,2.09-.45L181,224.5c.17-.66,2.14-1.16,3.65-.37.3.41-.77,1-.82,1.19a2.83,2.83,0,0,1,1.73.44l-.8.05c.77.6,1.77-.21,2.56.83.35.19.74,1.26,1,.92a4.61,4.61,0,0,1,1.16-3.55,14.73,14.73,0,0,1,1.86,2c.36.81-1.45.94-1.15,1.63.09-.16.51-.23.67-.24.32.31-.38.46.48.74.41-.57,1.65.77.62-.36.88.16.8.49,1.76.87-.13-.53,1.44-1,2.32-.84-.12.14,0,.42,0,.55,1.63.77,2.4,1.44,3.93,2.1.08.22.74.72.31.85a1.93,1.93,0,0,1,1.05.05c.68.94-1.1-.37-.68.58.22-.34,1.45,0,2.22.09,0-.65-1.52-.78-2.29-.84.33-.78,1.86-1.08,3.62-.75,1.36.36.34.74.61.73,2.34,1.16,2.63-.48,4.38.94.58.83-.38,1-.36,1.43-1.12-.26-1.47-1-2.18-1.29l.77.61a2.4,2.4,0,0,1-1.47-.46c.47.73,4,1.83,5.7,3,.4,0,1,.05.86-.27l-.62-.18c-.36-.63,1.34-.08.68-.58a5.33,5.33,0,0,1,3,.7l0,.65c0-.17-.58-.65-1-.61.57,0,1.37,1.49,2.2,1l-.61-.72c.91.06,2.14-.12,3,.48-.21-.75-.26,0-.67-1,.25,1.07-2.5-1.11-1.89.16-.4-1.06-1.11-.85-1.76-1.9-.06.2.17.5-.61.05a1.06,1.06,0,0,1-.25.09l-.05,0,0,0s-.05,0,0,0a1,1,0,0,1,.3.46c-.6.25-1.9-.33-2.44-.3-.45-.3.3-.12.12-.43l-.81,0c.11-.44-1-1.24.25-1l-1-.46a3.6,3.6,0,0,0-1.9-1c-.45-.3-1.43-.07-.87-.21l-1.73-.45,0-.11c-1.58-.74-3.6-.73-5.11-2.27a6,6,0,0,1-2.05-.74l0-.44c-.74-.17-1.93-1.25-2.38-1-.34-1.28-3.28-1.65-4.43-2.35l-.24.45a13.66,13.66,0,0,0-2.82-.86l-.11.44c-1-.05-2.18-1.29-3.62-1.86.16-.11.51.08.72.29-1.3-1.66-3.87-.87-5.12-2.21a1.25,1.25,0,0,1-.93-.4l.1,0-.15-.07a6.2,6.2,0,0,0-.44-.45,2.55,2.55,0,0,0,.35.41,7.2,7.2,0,0,0-1.25-.35V218l-.11,0c-.36-.35-.43.06-.35.49a2.59,2.59,0,0,0-.69,0c-.05-.87-1.26-.26-1.41-1.22-.46.24-2.33-.68-2.9,0,0-.1-.08-.21.16-.11a2.46,2.46,0,0,0-1.44-.57l0-.65-1.39.29c-.51-.62-.69-.93.14-1.09-1.85,0-1.37-.29-3-.2l.22-.34c-.48-.19-1.45,0-1.61-.45-.76-1.15-5.2-2.35-7.65-4.17.07,1.3-1.06-1-1.53-.24,0-.32-.36-.63.17-.66-1.49-.34-1.91-1.3-3.17-1,0-.32.45-.24.38-.45-.14,0-.54,0-.62-.19s.3-.12.56-.14a1.61,1.61,0,0,0-2.33.84,1.29,1.29,0,0,0-1.68-.5c-.14-.35-.45-.78.46-.49-.48-.24-2.88-1.65-3.18-1.09-.09-.21-.67-.34-.83-.33a24.29,24.29,0,0,0-2.29-1l.26.23c-.74.52-1-.23-1.9-.53l.06-.06c-1.8-1.38-1-.13-2.72-1.57l-.08.49c-.6.86-1.53-1.32-2.84-1.46l.31.43c-.77.06-1.22-2-1.8-2.44-.1-.14.28,0,.5,0-1.43-1.28-.47.48-1.76.08-.1-.41.63-.66-.18-1.08-.3-.43-2.85,0-3.73-1.11.15.35.29.69-.36.63-.92-.3-2-1.94-3.11-1.52-.09-.12-.1-.2-.08-.26-.76-.09-2.33-.62-2.91-.38,0-1.79-4.51-1.06-3.89-2.46l-2.11-.81.12-.12a3.12,3.12,0,0,0-2.51-.4c-.27-.22,0-.26.07-.32a5.3,5.3,0,0,0-4-1.14l0-.53c-.55.08-2.49-1.91-4.62-2.2a.39.39,0,0,1,.3-.11c-2.37-.39-4.57-3.47-6.07-2.14l-1.58-.2c1.76.91-.59.6,0,1.2-.76-.21-1.64-1.3-.72-1l.1.14c.69-.73-2.14-1.28-1.83-1.85-3.61-1.5-6.9-3.48-10.25-5l.1.83-1.16-.54c-.24-.29-.19-.7.64-.31-.28-.57-1.54-.29-1.63-.15-1.52-1,1-.51.48-.74l-.7-.25.12.15c-.67,0-.85.3-1.84-.16-.57-.41-.14-.56-.38-.69,0,0-.06-.11-.38-.18l-1.45-.7.36.79c-.77,0-1.38-.63-1,.27-.61-1.36-5.37-2.71-5.86-3.26a7,7,0,0,1-3.09-.93c.23.23.14.9-.79.41.88-1.08-1.55-1.3-2-2.52.45.89-2.81-1-2.07.27-.77-.45.15-.48-.34-1-2.13-.35-4.1-2.13-6.54-3-.11.14.18.56-.43.58l-.91-1.35c-.5-.12-.83.75-1.45-.18.07.19.16.47-.18.39-4.31-2.79-9.78-3.44-13.87-6.95.51.58.07.43-.43.23.29.22-.18.4-.21.65l-1.71-1.46c-.62.45-2.14-.87-2.6-.38l.67.16c-1.12.33.51,2,0,2.86,1.27-.38,2,2.21,4,1.75.26.33-.41.16-.32.44.55-.21,1.05-.09,1.85.46l-.14,0c2.48,1,3.36,1.78,6,3.2l0-.52a2.7,2.7,0,0,1,.86.73c1-.37-1.64-.75-.71-1.21.4,1.22,4.14,1.79,4.24,3,.9.39-.05-.62.85-.23l.13.38.38-.25c.56.31.72.78.64,1a2.78,2.78,0,0,0-.6-.16c.63.65,2.22.83,2.44,1l-.8-.54c2.58.81,5.44,2.47,8.07,2.94l-.09-.28c2,.4,1.36.85,3.44,1.53l-.09,0a3.47,3.47,0,0,1,1.6.35c-.61,0,.75.88,0,.86,2.16.44,1.12.1,2.75-.1l.16.47a2.25,2.25,0,0,1,1.72.08c-1-.06.42.79-.67.78,1.78,1.65,3.44.59,3.93,2.09,1.37-.52-1.59-1.3-1-1.27-.32-.5,1.1-.36,1.72,0s.62,1.69,2.31,2.4c-.17-.08-.21,0-.37-.09.52.51,1.37.21,2,.93.68-.38,1,.47,1.43-.21l-1.62-.49c1,.18,2.15-.31,3.41.72a2.64,2.64,0,0,1-1,.09c.33.39.88.2,1.22.61-.44.68-2-.65-3.13-.5.33.51,2,.24,1.2.83,1.11-.71,1.6.84,3.07.56l-.26.41a2.67,2.67,0,0,1,1,.11l-.84.31c1.13-.08,1.6,1.19,2.6,1.31-1.86-.79-.19-.71-.84-1.36,2.54.4.83,1.7,3.48,2.6-.37-.09-1.19-.82-.56-.79a4.26,4.26,0,0,1,1.22,1.1c1.74.64-.07-.56.77-.52.35.78.93.14,1.75.29l-.19.45c1.81,1.11.91-.7,2.51.39l-1,.3,1,.23-.4.42a3.72,3.72,0,0,1,2.32.84c-.09-.41.47-.75,1.34-.4.47.52-.51.28.73.74-.39.16-.84.38-1.2-.25-.11.12-.39.16-.5.28a4.88,4.88,0,0,0,2,.93,1.36,1.36,0,0,1-.43-.31l2,.15c.21.28-.07.32-.34.36a9.59,9.59,0,0,1,1.25.19c-.29.31-.42.69-1.23.54l1.85.32c0,.21.67.8.4.84.84.61,2.58.29,3.7,1.1a.81.81,0,0,1,.53,0c1.13.58,2,1.47,3.55,1.56l.5,1c1.14.32-.7-1.26,1.19-.74,1.36.34.24.76.61,1.13a3.49,3.49,0,0,1,3.09.78A5.1,5.1,0,0,1,117.94,197.44Zm13.39,5.42c-.29,0-.93,0-1-.29C130.84,202.19,131,202.53,131.33,202.86ZM152,210.47c-.25.07-.52-.13-.78-.44A1.73,1.73,0,0,1,152,210.47Zm57.53,21.08h0C209,231.14,209.14,231.3,209.5,231.55Zm1.11.71c.15,0,.17-.08.14-.16-.13.07-.4,0-.69-.2C210.09,232.06,210.21,232.2,210.61,232.26Zm-128-54.83.19.21C82.21,177.55,82.4,177.49,82.6,177.43Z" style="fill:#231f20"/><path d="M149.42,210.1a.58.58,0,0,1,0-.29C149.28,209.84,149.24,209.92,149.42,210.1Z" style="fill:#231f20"/><path d="M109.58,194.13l0,0a.12.12,0,0,0-.08.06Z" style="fill:#231f20"/><path d="M190.54,228.08a1.09,1.09,0,0,1-.37-.43C190.11,227.75,190.18,227.89,190.54,228.08Z" style="fill:#231f20"/><path d="M217.25,234.22l-.82-.21a1.37,1.37,0,0,1,.63.44C217.09,234.34,217,234.12,217.25,234.22Z" style="fill:#231f20"/><path d="M222.69,239.81c.14,0,.24.09.37.09l.06-.22C222.64,239.49,222.24,239.51,222.69,239.81Z" style="fill:#231f20"/><path d="M217.32,236c-.1.4.43.48,1,.64l-.1,0C218.61,236.14,218,236.07,217.32,236Z" style="fill:#231f20"/><path d="M218.45,236.67a3.11,3.11,0,0,1,.5.21C219.1,236.69,218.76,236.75,218.45,236.67Z" style="fill:#231f20"/><path d="M212.23,232.66c.21.2.36-.41.44-.2C213.16,232.11,210.73,232.31,212.23,232.66Z" style="fill:#231f20"/><polygon points="217.22 237.41 217.23 236.87 216.77 237.11 217.22 237.41" style="fill:#231f20"/><path d="M213.15,235.26l.8.49c0-.08.15-.08.3-.06C213.73,235.45,213.19,235.11,213.15,235.26Z" style="fill:#231f20"/><path d="M214.25,235.69a1.71,1.71,0,0,0,.72.22A4.14,4.14,0,0,0,214.25,235.69Z" style="fill:#231f20"/><polygon points="216 237.04 215.79 236.84 215.2 236.55 216 237.04" style="fill:#231f20"/><path d="M204,231.22l-1-.27c-.16.12,0,.32.42.41S204.08,231.43,204,231.22Z" style="fill:#231f20"/><path d="M206.28,233.69c-.21-.2-.18-.31-.26-.52l-.27.55Z" style="fill:#231f20"/><path d="M203.51,232.66c-.16.12-1.55-.13-.35.34C203.32,232.89,204.31,233.16,203.51,232.66Z" style="fill:#231f20"/><polygon points="189.77 225.9 190.01 225.99 190.38 225.04 189.77 225.9" style="fill:#231f20"/><path d="M176.43,222.81c1,.7.51-.46,1.39.25.35-.11-.72-.58-.37-.66C176.68,222.35,176.39,222.07,176.43,222.81Z" style="fill:#231f20"/><path d="M177.45,222.4h.4A1.64,1.64,0,0,0,177.45,222.4Z" style="fill:#231f20"/><polygon points="39.44 158.31 38.81 157.81 39.14 158.32 39.44 158.31" style="fill:#231f20"/><path d="M37.78,158.41l.09-.66-.66.35C37.38,158.14,37.71,158.23,37.78,158.41Z" style="fill:#231f20"/><path d="M132.79,204.91l.12-.12c0-.2-.21-.28-.53-.45Z" style="fill:#231f20"/><polygon points="123.35 200.33 123.51 200.41 123.43 199.74 123.35 200.33" style="fill:#231f20"/><path d="M115,197.54c.32.16.76.21,1.08.37C115.29,197.7,115.17,196.83,115,197.54Z" style="fill:#231f20"/></g><g style="opacity:0.1"><path d="M254.55,214.48c.21-.34,1.26-.29,1.87.44.88.05.89-1.36.51-2.32-.09.15-.15.3-1,.18.19.31,1.54,1.21.74,1.25-1.12-.26-.8-.49-1.22-.9.23.64-1.61.09-1.67.85l1,.16C254.74,214.25,254.33,214.28,254.55,214.48Z" style="fill:#231f20"/><polygon points="255.15 211.58 255.37 211.24 254.84 211.27 255.15 211.58" style="fill:#231f20"/><path d="M159.53,175.81l-.42-.06A1.59,1.59,0,0,0,159.53,175.81Z" style="fill:#231f20"/><path d="M162.23,177l.15-.15C162.21,176.9,162.13,177,162.23,177Z" style="fill:#231f20"/><path d="M214.36,194.09c-.4-.57-.78-1.36-.89-.93v.47A2,2,0,0,1,214.36,194.09Z" style="fill:#231f20"/><path d="M185.41,184.46l.11.19.54-.22Z" style="fill:#231f20"/><path d="M184.32,186l-.61-.57A3.51,3.51,0,0,0,184.32,186Z" style="fill:#231f20"/><path d="M144.5,169.85l-.61.22C144.58,170.36,144.36,170,144.5,169.85Z" style="fill:#231f20"/><path d="M238.09,204.42a5.07,5.07,0,0,0-1.08-.75C237.48,204.14,237.79,204.68,238.09,204.42Z" style="fill:#231f20"/><path d="M162.42,172c-.27,0-.4,0-.43.1C162.26,172.18,162.42,172.16,162.42,172Z" style="fill:#231f20"/><path d="M235.65,203.09l.21.2a4.42,4.42,0,0,1,1.15.38A1.58,1.58,0,0,0,235.65,203.09Z" style="fill:#231f20"/><path d="M90.81,146.38l-.1-.1S90.73,146.35,90.81,146.38Z" style="fill:#231f20"/><path d="M76.86,135.61a5.92,5.92,0,0,1,.66.25A2,2,0,0,0,76.86,135.61Z" style="fill:#231f20"/><path d="M248.55,208.53c.36.13.07,0,0,0Z" style="fill:#231f20"/><path d="M249.58,210.85a.26.26,0,0,0-.22.13A.37.37,0,0,1,249.58,210.85Z" style="fill:#231f20"/><path d="M231.08,204.06l0,0C231.12,204.17,231.11,204.14,231.08,204.06Z" style="fill:#231f20"/><path d="M249,208.94a2.78,2.78,0,0,0-.4-.31A3,3,0,0,0,249,208.94Z" style="fill:#231f20"/><path d="M249,208.72l.29.18C249.37,208.85,249.35,208.79,249,208.72Z" style="fill:#231f20"/><path d="M248.05,208.35a3.15,3.15,0,0,1,.55.28c-.06-.06-.08-.09,0-.1Z" style="fill:#231f20"/><path d="M120.11,157.71s0,0,0-.07C119.63,157.65,119.8,157.69,120.11,157.71Z" style="fill:#231f20"/><path d="M203.42,194.29h.05l-.05,0Z" style="fill:#231f20"/><path d="M202,194a1.2,1.2,0,0,1,1.39.21l.08-1.33Z" style="fill:#231f20"/><path d="M153,173.13l.73.74c-1.32.13-2-.41-1.39.45.66-1.19,3.51,1.36,4.16.16l.48.52c-.17-.09-.22,0-.38-.11.88,1.09,1.23-.54,2.62.27.47.32.75.65.34.65l1.27.18c.32.17.15.35-.17.18l1.78.65,0,0a7.77,7.77,0,0,1,1.35-.16c.37.37-.28,0-.23.24l1.09.12c.25.49-.68.46-1.32.13.36,1.63.93,0,2.56,1.59l-1-.24c.28,1,1.1,1,1.94,1.89-.15-.33-1.58-2-.4-1.85a1.77,1.77,0,0,0,1.29.42c-.18.45.41.57,1.11.84l-.3.57c.82.15.89-.17,1.44-.25a1.36,1.36,0,0,1,.81,1.41c1.29.67-.6-1.12,1-.56a6.87,6.87,0,0,0,3.36,1c.68.54-.29.3-.09.59l.89-.17c.16.08.05.2,0,.26.65.07.3-.56,1.27-.33.53-.55,1.46,1.74,2.9,1.49.21.29-.29.3-.3.57a10.8,10.8,0,0,0,3,.11l.91.85c-.6-.78.63-.87,1.7-.92-.19-.33-.35-.62-.47-.78l1.55.29c.13.17-.1.32-.43.46a2.72,2.72,0,0,0,.31,0c.42.44,0,.66-.49.84-.13-.19-.24-.39-.36-.59-.5.21-1,.47-1.07.84a1.28,1.28,0,0,1,.53,0c-.13.06-.23.12-.21.2s.22,0,.52,0l0,.8.19-.23,1.67,1.21c1.61-.09,3.18-.57,5.4.06-.73.26-.45.74-.72,1.3-.32-.85-1.74-.45-2.78-1,.54.31.3.53.12.56l2.17.29c-.24.44.27.52.69.93,0-1.08,1.71,0,2.63.07-.09.33-.41.57-1.35.08.77,1.15,1.84-.49,2.64.54-.24-.09-.35-.19-.51-.07.67,0,1.92.75,1.49.89l-.24-.1c1.52.78,4.76,2.06,5.33,1.37a5.06,5.06,0,0,1-.78,1l3.92-1.43c-.53.56-.27,2.57-1.73,2.39a2.91,2.91,0,0,0,1.63.66c-.22-.2-.22-1.24.15-1.15.64,1.16.49.68,1.39,1.82-.31-.3.56-1.17,1.15-.88-.16.12-.4,1.06-.67,1.07l1.95-.39c-.46,0-.45.85-.24,1.29-.06-.27,1.29.57,1.73.64l-.53-.51c1.63.88,2.3-.73,3.95,0-.29.13-1.07,1.1-.27,1.6.62-.37,2.83-1.81,4.49-1.57l.15.42,1.29.15a24.63,24.63,0,0,1-5.13,1.49c.53.51,0,.43,1,.81.21.43-.7.21-1,.11l2.13,1.13c.17-.66,2,.11,2.09-.44l-2.67-.4c.17-.65,2.14-1.15,3.66-.37.29.42-.77,1-.83,1.19a2.88,2.88,0,0,1,1.74.44l-.81.05c.77.61,1.77-.21,2.57.83.34.2.73,1.26,1,.92a4.64,4.64,0,0,1,1.16-3.55,14.92,14.92,0,0,1,1.87,2c.35.8-1.46.93-1.16,1.62.09-.16.51-.22.68-.23.31.3-.38.45.47.73.41-.57,1.65.77.62-.36.88.17.8.5,1.76.88-.13-.54,1.44-1,2.32-.85-.11.14,0,.43,0,.56,1.62.76,2.39,1.43,3.93,2.1.07.21.74.71.3.85a1.84,1.84,0,0,1,1.05.05c.69.93-1.1-.38-.68.58.22-.34,1.45,0,2.22.09,0-.66-1.51-.78-2.29-.85.33-.77,1.86-1.08,3.62-.75,1.37.36.34.74.61.73,2.35,1.17,2.63-.47,4.39.94.58.84-.39,1-.37,1.43-1.12-.26-1.46-1-2.18-1.28l.77.6a2.39,2.39,0,0,1-1.47-.45c.48.72,4,1.83,5.7,3,.4,0,1,.05.86-.26l-.61-.19c-.37-.63,1.34-.07.67-.58a5.33,5.33,0,0,1,3,.7l0,.65c.05-.17-.58-.64-1-.6.57-.06,1.38,1.49,2.2,1l-.61-.73c.91.06,2.14-.12,3,.48-.21-.75-.25,0-.67-1,.26,1.07-2.5-1.12-1.89.15-.39-1.06-1.1-.85-1.76-1.9,0,.2.18.5-.61.06a1.83,1.83,0,0,1-.25.08l-.05,0a.08.08,0,0,0,0,0s-.06,0,0,0a1,1,0,0,1,.3.46c-.59.25-1.9-.32-2.44-.29-.45-.3.3-.13.12-.44l-.81,0c.12-.44-1-1.24.26-1l-1-.46a3.66,3.66,0,0,0-1.91-1c-.45-.3-1.43-.07-.86-.21l-1.74-.44,0-.11c-1.58-.75-3.6-.74-5.11-2.27a5.89,5.89,0,0,1-2.05-.75l0-.43c-.75-.18-1.93-1.26-2.39-1-.34-1.28-3.28-1.66-4.42-2.35l-.25.44a14.4,14.4,0,0,0-2.81-.86l-.12.44c-1-.05-2.18-1.29-3.62-1.85.17-.12.51.08.72.28-1.3-1.66-3.87-.86-5.12-2.2a1.31,1.31,0,0,1-.93-.41.22.22,0,0,0,.11,0l-.16-.07c-.14-.14-.28-.3-.44-.45a1.88,1.88,0,0,0,.36.41,7.18,7.18,0,0,0-1.26-.34v-.53l-.1,0c-.37-.35-.44.06-.35.5a2.31,2.31,0,0,0-.7,0c0-.86-1.26-.25-1.41-1.22-.46.24-2.33-.67-2.9,0,0-.11-.08-.21.16-.12a2.44,2.44,0,0,0-1.44-.57l0-.65-1.39.3c-.51-.63-.69-.94.14-1.1-1.84,0-1.37-.29-3-.2l.22-.34c-.48-.19-1.45,0-1.6-.45-.77-1.15-5.21-2.35-7.66-4.16.07,1.29-1.06-1-1.52-.24-.05-.33-.37-.63.17-.66-1.5-.35-1.92-1.3-3.18-1,0-.33.46-.25.38-.46-.14,0-.54,0-.62-.18s.3-.13.57-.14a1.61,1.61,0,0,0-2.34.84,1.28,1.28,0,0,0-1.68-.51c-.14-.35-.45-.78.47-.48-.48-.25-2.88-1.66-3.19-1.09-.09-.22-.67-.34-.83-.33a20.05,20.05,0,0,0-2.29-1l.26.22c-.74.52-1-.23-1.9-.53l.06-.06c-1.8-1.38-1-.13-2.72-1.57l-.08.49c-.59.87-1.53-1.32-2.84-1.45l.31.43c-.77,0-1.21-2.05-1.8-2.44-.1-.14.28,0,.5,0-1.42-1.27-.47.49-1.76.09-.1-.41.63-.67-.18-1.08-.3-.43-2.85,0-3.73-1.12.15.35.3.7-.36.63-.92-.29-2-1.93-3.11-1.52a.27.27,0,0,1-.08-.26c-.76-.09-2.33-.61-2.91-.38,0-1.79-4.51-1.06-3.89-2.46l-2.11-.81.12-.12a3.11,3.11,0,0,0-2.51-.39c-.26-.23,0-.26.07-.33a5.28,5.28,0,0,0-3.95-1.13l0-.53c-.55.07-2.49-1.92-4.62-2.21a.39.39,0,0,1,.3-.11c-2.37-.38-4.57-3.46-6.07-2.14l-1.58-.2c1.77.92-.58.61,0,1.2-.76-.21-1.64-1.29-.72-1l.1.14c.7-.72-2.13-1.28-1.83-1.85-3.61-1.5-6.9-3.48-10.25-5l.1.84-1.16-.55c-.24-.28-.18-.7.64-.31-.27-.57-1.54-.29-1.63-.15-1.52-1,1-.51.49-.74l-.71-.24.12.14c-.67,0-.84.31-1.83-.16-.58-.41-.15-.55-.39-.69,0,0,0-.1-.38-.18l-1.45-.69.36.78c-.76,0-1.37-.62-1,.27-.6-1.36-5.37-2.7-5.86-3.25a7.15,7.15,0,0,1-3.09-.94c.23.23.14.9-.79.41.88-1.08-1.54-1.29-1.94-2.51.44.88-2.82-1-2.08.26-.76-.44.15-.48-.34-1-2.12-.35-4.1-2.13-6.54-3-.11.14.18.56-.43.58l-.91-1.34c-.5-.12-.83.74-1.44-.18.06.18.15.47-.19.38-4.31-2.79-9.78-3.44-13.87-6.95.51.59.07.44-.42.24.28.21-.18.39-.21.64L75.59,135c-.62.45-2.14-.87-2.6-.38l.68.17c-1.13.33.51,2,0,2.85,1.26-.38,2,2.21,4,1.75.26.33-.41.16-.32.45.55-.21,1-.09,1.85.45l-.14,0c2.48,1,3.36,1.78,6,3.2l0-.52a2.59,2.59,0,0,1,.86.73c1-.37-1.64-.75-.71-1.21.4,1.22,4.15,1.8,4.24,3,.9.4,0-.62.86-.22l.12.37.38-.25c.57.31.72.78.64,1a2.2,2.2,0,0,0-.6-.15c.63.65,2.22.82,2.44,1l-.8-.54c2.58.8,5.45,2.46,8.07,2.93l-.09-.28c2,.4,1.36.85,3.44,1.54h-.09a3.31,3.31,0,0,1,1.6.36c-.61,0,.75.87,0,.86,2.15.44,1.11.1,2.75-.11l.15.47a2.3,2.3,0,0,1,1.72.08c-.94-.06.42.8-.67.79,1.78,1.64,3.44.58,3.94,2.09,1.36-.53-1.59-1.31-1-1.28-.32-.5,1.1-.36,1.72,0s.62,1.7,2.31,2.4c-.16-.07-.21,0-.37-.08.53.51,1.38.2,2,.93.68-.39,1,.46,1.43-.21l-1.62-.5c1,.19,2.15-.31,3.41.72a2.62,2.62,0,0,1-1,.09c.33.4.88.21,1.22.62-.44.67-2-.65-3.12-.5.32.5,2,.23,1.19.82,1.11-.71,1.61.84,3.08.57l-.27.4a2.49,2.49,0,0,1,1,.12l-.84.3c1.13-.08,1.6,1.19,2.6,1.31-1.86-.78-.19-.7-.84-1.36,2.54.4.83,1.71,3.48,2.6-.37-.09-1.19-.82-.56-.79a4.26,4.26,0,0,1,1.22,1.1c1.74.64-.06-.56.77-.52.35.78.93.15,1.75.3l-.19.44c1.82,1.12.91-.7,2.51.39l-1,.3,1,.23-.4.42a3.78,3.78,0,0,1,2.32.84c-.09-.41.47-.75,1.34-.39.47.51-.51.28.73.74-.39.16-.84.37-1.2-.26-.11.12-.39.16-.5.28a4.94,4.94,0,0,0,2,.93,1.7,1.7,0,0,1-.43-.3l2,.14c.2.29-.08.32-.35.36a9.85,9.85,0,0,1,1.25.2c-.29.3-.42.68-1.23.53l1.85.33c0,.2.68.8.4.84.84.61,2.58.28,3.7,1.09a.84.84,0,0,1,.53,0c1.13.58,2,1.46,3.55,1.56l.5,1c1.14.31-.7-1.27,1.19-.74,1.36.34.24.75.61,1.12a3.56,3.56,0,0,1,3.09.78A5.71,5.71,0,0,1,153,173.13Zm13.4,5.42c-.3,0-.94,0-1-.3C165.87,177.87,166,178.21,166.37,178.55ZM187,186.16c-.25.06-.52-.14-.78-.45A1.7,1.7,0,0,1,187,186.16Zm57.53,21.08h0C244,206.83,244.17,207,244.53,207.24Zm1.11.7c.15,0,.17-.07.14-.16-.13.08-.4,0-.69-.19C245.12,207.74,245.24,207.89,245.64,207.94Zm-128-54.83.18.22C117.24,153.23,117.44,153.18,117.64,153.11Z" style="fill:#231f20"/><path d="M184.45,185.78a.48.48,0,0,1,0-.29C184.31,185.52,184.27,185.61,184.45,185.78Z" style="fill:#231f20"/><path d="M144.62,169.81l0,0-.08.06Z" style="fill:#231f20"/><path d="M225.57,203.76a1.18,1.18,0,0,1-.37-.43C225.14,203.43,225.21,203.57,225.57,203.76Z" style="fill:#231f20"/><path d="M252.28,209.9l-.81-.21a1.35,1.35,0,0,1,.62.44C252.12,210,252,209.81,252.28,209.9Z" style="fill:#231f20"/><path d="M252.35,211.68c-.1.4.44.48,1,.64l-.09,0C253.64,211.82,253,211.75,252.35,211.68Z" style="fill:#231f20"/><path d="M253.48,212.36a2.37,2.37,0,0,1,.5.2C254.13,212.38,253.8,212.43,253.48,212.36Z" style="fill:#231f20"/><path d="M247.26,208.34c.21.21.36-.41.44-.19C248.19,207.8,245.77,208,247.26,208.34Z" style="fill:#231f20"/><polygon points="252.26 213.09 252.26 212.55 251.81 212.79 252.26 213.09" style="fill:#231f20"/><path d="M248.18,210.94l.8.49c0-.08.15-.08.3-.05C248.76,211.13,248.22,210.79,248.18,210.94Z" style="fill:#231f20"/><path d="M249.28,211.38a2.06,2.06,0,0,0,.72.22A3.43,3.43,0,0,0,249.28,211.38Z" style="fill:#231f20"/><polygon points="251.03 212.73 250.82 212.52 250.23 212.23 251.03 212.73" style="fill:#231f20"/><path d="M239,206.9l-1-.27c-.16.12,0,.33.42.41S239.12,207.12,239,206.9Z" style="fill:#231f20"/><path d="M241.32,209.38a.94.94,0,0,1-.26-.53l-.28.56Z" style="fill:#231f20"/><path d="M238.54,208.34c-.16.12-1.55-.13-.35.35C238.35,208.57,239.34,208.84,238.54,208.34Z" style="fill:#231f20"/><polygon points="224.81 201.58 225.04 201.67 225.41 200.72 224.81 201.58" style="fill:#231f20"/><path d="M211.46,198.5c1,.69.51-.47,1.39.24.36-.11-.72-.58-.37-.66C211.72,198,211.42,197.75,211.46,198.5Z" style="fill:#231f20"/><path d="M212.48,198.08a2.6,2.6,0,0,0,.4,0A1.37,1.37,0,0,0,212.48,198.08Z" style="fill:#231f20"/><polygon points="74.47 133.99 73.85 133.49 74.17 134 74.47 133.99" style="fill:#231f20"/><path d="M72.81,134.1l.09-.67-.66.36C72.41,133.83,72.75,133.91,72.81,134.1Z" style="fill:#231f20"/><path d="M167.82,180.6l.12-.12c0-.21-.21-.29-.53-.46Z" style="fill:#231f20"/><polygon points="158.38 176.01 158.54 176.09 158.46 175.42 158.38 176.01" style="fill:#231f20"/><path d="M150,173.22c.32.16.76.21,1.08.38C150.32,173.38,150.2,172.51,150,173.22Z" style="fill:#231f20"/></g></g><circle cx="127.4" cy="125.81" r="119.37" style="fill:none;stroke:#231f20;stroke-miterlimit:10;stroke-width:2px"/></svg>